<svg width="40" height="41" viewBox="0 0 40 41" fill="none" xmlns="http://www.w3.org/2000/svg">
<g id="Frame">
<path id="reset" d="M30.8 18.8308H21.6V9.73076C21.6 8.93076 20.8 8.03076 19.9 8.03076C19.1 8.03076 18.2 8.83076 18.2 9.73076V18.9308H9.2C8.4 18.9308 7.5 19.7308 7.5 20.6308C7.5 21.4308 8.3 22.3308 9.2 22.3308H18.4V31.5308C18.4 32.3308 19.2 33.2308 20.1 33.2308C20.9 33.2308 21.8 32.4308 21.8 31.5308V22.3308H31C31.8 22.3308 32.7 21.5308 32.7 20.6308C32.5 19.7308 31.7 18.8308 30.8 18.8308Z" fill="white"/>
</g>
</svg>
