<svg width="87" height="124" viewBox="0 0 87 124" fill="none" xmlns="http://www.w3.org/2000/svg">
<path d="M55.8032 60.6938V60.6971L27.2345 91.8232C26.3954 88.7729 24.717 85.919 22.2128 83.6246C20.8774 82.3991 19.3989 81.4201 17.8404 80.6841C17.8371 80.6808 17.8338 80.6808 17.8271 80.6808C17.4342 80.4943 17.0345 80.3245 16.6283 80.1713L16.6249 80.168C16.0089 79.8916 15.3995 79.5886 14.7967 79.2622C12.7987 78.1799 10.8972 76.8346 9.14896 75.2262C6.34171 72.6487 4.17384 69.635 2.65533 66.3848C-2.04672 56.3281 -0.534873 43.9968 7.4373 35.3087L39.8422 0L39.8655 0.0199796C46.9685 6.54025 47.4447 17.5861 40.9211 24.6891L20.8641 46.541C20.671 46.7241 20.4812 46.914 20.298 47.1138C20.1149 47.3136 19.9417 47.5167 19.7785 47.7265C16.3053 52.1188 16.7615 58.5159 20.954 62.3621C22.8855 64.1337 25.2831 65.0695 27.7107 65.1894L54.7109 35.7716C54.7609 35.8149 54.8075 35.8581 54.8541 35.9014C61.9571 42.4217 62.4333 53.4675 55.9131 60.5706C55.8798 60.6138 55.8431 60.6538 55.8032 60.6938Z" fill="white"/>
<path d="M82.4037 83.3319L62.3468 105.184C62.1536 105.367 61.9638 105.557 61.7807 105.757C61.5975 105.956 61.4243 106.16 61.2612 106.369L45.6498 123.379L45.6265 123.359C44.1546 122.007 42.9658 120.459 42.0667 118.794C38.6267 112.427 39.4026 104.321 44.5675 98.6902C44.5675 98.6902 69.9693 71.0406 70.1758 70.7876C74.022 66.1022 75.0443 59.9415 73.3327 54.4802C76.2232 55.1196 78.9838 56.5049 81.3215 58.6428L81.3415 58.6628C88.4511 65.1831 88.924 76.2289 82.4037 83.3319Z" fill="white"/>
<path d="M81.3148 33.4008C80.2858 35.572 74.8145 40.4805 74.8145 40.4805C73.8988 39.9144 73.023 39.2517 72.2004 38.4991C67.878 34.533 64.3948 28.429 66.6825 23.4772C67.7248 21.2227 73.3993 16.1577 73.3993 16.1577C73.8988 16.4741 74.385 16.8204 74.8578 17.1934L76.7593 18.9383C80.5089 22.9244 83.5293 28.732 81.3148 33.4008Z" fill="white"/>
<path d="M55.8032 60.6938V60.6971L27.2345 91.8232C26.3954 88.7729 24.717 85.919 22.2128 83.6246C20.8774 82.3991 19.3989 81.4201 17.8404 80.6841C17.8371 80.6808 17.8338 80.6808 17.8271 80.6808C17.4342 80.4943 17.0345 80.3245 16.6283 80.1713L16.6249 80.168C16.0089 79.8916 15.3995 79.5886 14.7967 79.2622C12.7987 78.1799 10.8972 76.8346 9.14896 75.2262C6.34171 72.6487 4.17384 69.635 2.65533 66.3848C-2.04672 56.3281 -0.534873 43.9968 7.4373 35.3087L39.8422 0L39.8655 0.0199796C46.9685 6.54025 47.4447 17.5861 40.9211 24.6891L20.8641 46.541C20.671 46.7241 20.4812 46.914 20.298 47.1138C20.1149 47.3136 19.9417 47.5167 19.7785 47.7265C16.3053 52.1188 16.7615 58.5159 20.954 62.3621C22.8855 64.1337 25.2831 65.0695 27.7107 65.1894L54.7109 35.7716C54.7609 35.8149 54.8075 35.8581 54.8541 35.9014C61.9571 42.4217 62.4333 53.4675 55.9131 60.5706C55.8798 60.6138 55.8431 60.6538 55.8032 60.6938Z" fill="white"/>
<path d="M82.4037 83.3319L62.3468 105.184C62.1536 105.367 61.9638 105.557 61.7807 105.757C61.5975 105.956 61.4243 106.16 61.2612 106.369L45.6498 123.379L45.6265 123.359C44.1546 122.007 42.9658 120.459 42.0667 118.794C38.6267 112.427 39.4026 104.321 44.5675 98.6902C44.5675 98.6902 69.9693 71.0406 70.1758 70.7876C74.022 66.1022 75.0443 59.9415 73.3327 54.4802C76.2232 55.1196 78.9838 56.5049 81.3215 58.6428L81.3415 58.6628C88.4511 65.1831 88.924 76.2289 82.4037 83.3319Z" fill="white"/>
<path d="M81.3148 33.4008C80.2858 35.572 74.8145 40.4805 74.8145 40.4805C73.8988 39.9144 73.023 39.2517 72.2004 38.4991C67.878 34.533 64.3948 28.429 66.6825 23.4772C67.7248 21.2227 73.3993 16.1577 73.3993 16.1577C73.8988 16.4741 74.385 16.8204 74.8578 17.1934L76.7593 18.9383C80.5089 22.9244 83.5293 28.732 81.3148 33.4008Z" fill="white"/>
</svg>
